<svg width="118" height="40" viewBox="0 0 118 40" fill="none" xmlns="http://www.w3.org/2000/svg">
<path d="M41.7176 20.4911C44.385 20.4911 45.3337 20.0236 45.98 19.3773C46.5849 18.7724 46.7637 18.0024 46.7637 17.1774C46.7637 16.3662 46.6124 15.5962 46.0075 14.9912C45.3475 14.3313 44.4675 13.9188 41.7589 13.9188H33.8804V23.5435H36.0115V20.4911H41.7176ZM36.0115 18.7724V15.6375H41.8688C43.4088 15.6375 43.9588 15.83 44.2613 16.1325C44.55 16.4212 44.6463 16.7512 44.6463 17.2049C44.6463 17.6587 44.55 17.9886 44.2613 18.2774C43.9588 18.5799 43.4088 18.7724 41.8688 18.7724H36.0115ZM51.6435 23.5435V13.9188H49.5123V23.5435H51.6435ZM62.1422 23.7634C64.8509 23.7634 66.8721 23.1997 68.0408 22.5535V20.6698C66.6658 21.4398 64.4934 22.0448 62.1422 22.0448C59.7773 22.0448 58.3198 21.536 57.6874 20.9035C57.1786 20.3948 56.9036 19.7211 56.9036 18.7311C56.9036 17.7412 57.1649 17.0399 57.6736 16.5312C58.3061 15.8987 59.791 15.4175 62.156 15.4175C64.5071 15.4175 66.6658 16.0775 68.0408 16.8887V14.9087C66.8721 14.2625 64.8509 13.6988 62.1422 13.6988C58.7598 13.6988 56.9174 14.4963 56.0099 15.4037C55.1712 16.2425 54.7587 17.4112 54.7587 18.7311C54.7587 20.0511 55.1712 21.2198 56.0099 22.0585C56.9174 22.966 58.7598 23.7634 62.1422 23.7634ZM73.4334 21.7835V13.9188H71.3022V23.5435H83.1131V21.7835H73.4334ZM90.8932 13.8638L84.1972 23.5435H86.5484L88.0883 21.2748H96.4893L98.0293 23.5435H100.477L93.7807 13.8638H90.8932ZM92.282 15.0737L95.3343 19.5698H89.2433L92.282 15.0737ZM102.588 23.5435H111.044C113.794 23.5435 114.811 23.0897 115.402 22.4985C115.884 22.0173 116.007 21.426 116.007 20.8485C116.007 19.5561 115.169 18.9236 113.697 18.6486C115.1 18.3599 115.87 17.6999 115.87 16.4487C115.87 15.8437 115.746 15.335 115.292 14.8812C114.646 14.235 113.752 13.9188 111.14 13.9188H102.588V23.5435ZM113.574 20.0098C113.752 20.1886 113.821 20.4086 113.821 20.7111C113.821 20.986 113.766 21.2473 113.532 21.481C113.244 21.7698 112.68 21.8935 111.14 21.8935H104.691V19.5011H110.851C112.817 19.5011 113.285 19.7211 113.574 20.0098ZM113.436 16.05C113.629 16.2425 113.684 16.4624 113.684 16.7237C113.684 17.0124 113.615 17.2324 113.45 17.3974C113.161 17.6862 112.721 17.8511 110.851 17.8511H104.691V15.6237H111.002C112.611 15.6237 113.147 15.7612 113.436 16.05Z" fill="white"/>
<path fill-rule="evenodd" clip-rule="evenodd" d="M14.5362 0.000488281H17.9565V26.9606H14.5362V0.000488281ZM0 12.8012H3.42029V39.7613H0V12.8012ZM10.6884 12.8012H7.26811V26.9606H10.6884V12.8012Z" fill="white"/>
</svg>
